HIERARCHY
ROOT Hips
{
	OFFSET -0.001795 -0.223333 0.028219
	CHANNELS 6 Xposition Yposition Zposition Zrotation Yrotation Xrotation 
	JOINT LeftUpLeg
	{
		OFFSET 0.069520 -0.091406 -0.006815
		CHANNELS 3 Zrotation Yrotation Xrotation
		JOINT LeftLeg
		{
			OFFSET 0.034277 -0.375199 -0.004496
			CHANNELS 3 Zrotation Yrotation Xrotation
			JOINT LeftFoot
			{
				OFFSET -0.013596 -0.397961 -0.043693
				CHANNELS 3 Zrotation Yrotation Xrotation
				JOINT LeftToe
				{
					OFFSET 0.026358 -0.055791 0.119288
					CHANNELS 3 Zrotation Yrotation Xrotation
					End Site
					{
						OFFSET 0.000000 0.000000 0.000000
					}
				}
			}
		}
	}
	JOINT RightUpLeg
	{
		OFFSET -0.067670 -0.090522 -0.004320
		CHANNELS 3 Zrotation Yrotation Xrotation
		JOINT RightLeg
		{
			OFFSET -0.038290 -0.382569 -0.008850
			CHANNELS 3 Zrotation Yrotation Xrotation
			JOINT RightFoot
			{
				OFFSET 0.015774 -0.398415 -0.042312
				CHANNELS 3 Zrotation Yrotation Xrotation
				JOINT RightToe
				{
					OFFSET -0.025372 -0.048144 0.123348
					CHANNELS 3 Zrotation Yrotation Xrotation
					End Site
					{
						OFFSET 0.000000 0.000000 0.000000
					}
				}
			}
		}
	}
	JOINT Spine
	{
		OFFSET -0.002533 0.108963 -0.026696
		CHANNELS 3 Zrotation Yrotation Xrotation
		JOINT Spine1
		{
			OFFSET 0.005487 0.135180 0.001092
			CHANNELS 3 Zrotation Yrotation Xrotation
			JOINT Spine2
			{
				OFFSET 0.001457 0.052922 0.025425
				CHANNELS 3 Zrotation Yrotation Xrotation
				JOINT Neck
				{
					OFFSET -0.002778 0.213870 -0.042857
					CHANNELS 3 Zrotation Yrotation Xrotation
					JOINT Head
					{
						OFFSET 0.005152 0.064970 0.051349
						CHANNELS 3 Zrotation Yrotation Xrotation
						End Site
						{
							OFFSET 0.000000 0.000000 0.000000
						}
					}
				}
				JOINT LeftShoulder
				{
					OFFSET 0.078845 0.121749 -0.034090
					CHANNELS 3 Zrotation Yrotation Xrotation
					JOINT LeftArm
					{
						OFFSET 0.090977 0.030469 -0.008868
						CHANNELS 3 Zrotation Yrotation Xrotation
						JOINT LeftForeArm
						{
							OFFSET 0.259612 -0.012772 -0.027456
							CHANNELS 3 Zrotation Yrotation Xrotation
							JOINT LeftHand
							{
								OFFSET 0.249234 0.008986 -0.001171
								CHANNELS 3 Zrotation Yrotation Xrotation
								End Site
								{
									OFFSET 0.000000 0.000000 0.000000
								}
							}
						}
					}
				}
				JOINT RightShoulder
				{
					OFFSET -0.081759 0.118833 -0.038615
					CHANNELS 3 Zrotation Yrotation Xrotation
					JOINT RightArm
					{
						OFFSET -0.096012 0.032551 -0.009143
						CHANNELS 3 Zrotation Yrotation Xrotation
						JOINT RightForeArm
						{
							OFFSET -0.253742 -0.013329 -0.021401
							CHANNELS 3 Zrotation Yrotation Xrotation
							JOINT RightHand
							{
								OFFSET -0.255298 0.007772 -0.005559
								CHANNELS 3 Zrotation Yrotation Xrotation
								End Site
								{
									OFFSET 0.000000 0.000000 0.000000
								}
							}
						}
					}
				}
			}
		}
	}
}
MOTION
Frames: 15
Frame Time: 0.050000
0.000000 0.951238 0.000000 -0.245323 3.687248 -4.057636 1.100131 0.698362 9.483971 1.524394 -0.038259 -2.548938 -1.678434 1.517042 9.956321 0.000000 0.000000 0.000000 0.857700 -0.816909 7.126774 -0.677381 0.090003 0.272133 3.565383 5.962968 5.238902 0.000000 0.000000 0.000000 0.858277 -0.214836 4.562833 0.419877 -0.567858 7.306349 -0.974438 0.550415 -3.809965 2.457677 -2.116428 1.468512 0.000000 0.000000 0.000000 -27.431448 2.841910 -5.742023 -41.501918 3.218230 -5.029348 -4.057021 -20.403206 1.331615 0.000000 0.000000 0.000000 27.336488 -3.865046 -4.601698 47.058064 -1.069219 -4.436089 1.518726 20.979697 0.952536 0.000000 0.000000 0.000000 
0.000250 0.950225 -0.000346 -0.303957 4.152921 -4.153000 1.518774 0.664077 9.703544 0.987428 0.020841 -2.879250 -1.887294 1.078735 9.659856 0.000000 0.000000 0.000000 0.553360 -0.800143 7.124082 0.265847 -0.025317 0.152902 3.211589 4.998048 5.574018 0.000000 0.000000 0.000000 0.622794 -0.212698 4.681565 0.117802 -0.453378 8.102167 -0.983066 0.226303 -4.774776 2.195379 -1.766154 0.493192 0.000000 0.000000 0.000000 -26.881696 3.545474 -6.048945 -43.369071 2.832792 -5.106784 -2.220265 -20.388073 0.993514 0.000000 0.000000 0.000000 27.665468 -4.117772 -4.895102 47.860034 -2.299982 -4.876821 0.619356 22.622452 0.857290 0.000000 0.000000 0.000000 
0.000389 0.949632 -0.000660 -0.182151 4.045366 -3.998633 1.466470 0.641041 9.247759 0.785433 0.015908 -2.357754 -1.766453 1.161321 9.404275 0.000000 0.000000 0.000000 0.718752 -0.807912 7.102764 -0.299199 0.013150 -0.527125 3.285566 4.892861 6.061888 0.000000 0.000000 0.000000 0.766538 -0.236456 5.051181 0.134195 -0.344653 5.960422 -1.201431 -0.462533 -3.396691 1.848196 -1.472522 0.269968 0.000000 0.000000 0.000000 -26.720167 3.291403 -5.618001 -43.988083 2.656794 -5.297545 -2.688701 -20.238105 1.104339 0.000000 0.000000 0.000000 27.467143 -3.389821 -4.566732 47.693190 -2.208236 -4.891851 0.851061 22.270191 0.871852 0.000000 0.000000 0.000000 
0.000283 0.949992 -0.000871 -0.227209 4.347214 -4.772942 1.355441 0.709409 10.182134 1.193586 -0.006993 -2.612306 -1.952830 0.925478 9.522652 0.000000 0.000000 0.000000 0.787331 -0.919491 7.993837 -0.148989 0.011674 -0.149258 2.913955 4.445252 5.363649 0.000000 0.000000 0.000000 0.447399 -0.266556 5.953026 -0.134052 -0.274949 7.412644 -0.438141 -1.058715 -4.951571 1.492180 -1.271185 1.113728 0.000000 0.000000 0.000000 -27.629511 4.279861 -6.205379 -43.947886 2.023341 -5.019931 -2.410097 -20.137717 1.059608 0.000000 0.000000 0.000000 27.077349 -3.204715 -4.708410 47.565697 -2.281900 -4.704070 1.350351 22.078518 0.900898 0.000000 0.000000 0.000000 
-0.000023 0.950374 -0.001093 -0.232627 4.630544 -4.928621 1.421688 0.708062 10.360359 1.193260 -0.001574 -2.725877 -2.130774 0.709979 9.658570 0.000000 0.000000 0.000000 0.997166 -0.952214 8.109559 -0.499709 0.061550 0.065995 2.848725 4.393059 5.226645 0.000000 0.000000 0.000000 0.227126 -0.296661 6.780487 0.633619 -0.721590 7.368700 -1.224603 -0.661099 -5.711494 1.819738 -1.614254 1.746060 0.000000 0.000000 0.000000 -27.806877 4.034719 -6.371813 -43.495594 1.938975 -4.794221 -3.295913 -20.622080 1.204938 0.000000 0.000000 0.000000 26.700005 -3.931445 -4.882413 47.651993 -1.924564 -4.570460 1.660033 21.262657 0.939623 0.000000 0.000000 0.000000 
-0.000477 0.950410 -0.001099 -0.342717 4.956193 -4.944916 1.628779 0.685374 10.462073 1.169100 0.011517 -2.972709 -2.302880 0.460296 9.683915 0.000000 0.000000 0.000000 1.044965 -0.957949 8.093215 -0.480267 0.058020 0.030181 3.031850 4.684966 5.527429 0.000000 0.000000 0.000000 0.227830 -0.326511 7.380017 0.788694 -0.793199 6.935865 -1.302227 -1.139051 -5.893421 1.799096 -1.580671 1.688616 0.000000 0.000000 0.000000 -28.265643 4.354027 -6.562650 -43.231340 1.398233 -4.590355 -4.619380 -20.641404 1.453563 0.000000 0.000000 0.000000 26.506775 -4.098304 -5.064037 47.696022 -2.136920 -4.610321 2.108587 21.188779 0.995703 0.000000 0.000000 0.000000 
-0.000979 0.950432 -0.001037 -0.326692 4.835919 -4.982970 1.691960 0.686466 10.535182 1.062964 0.020446 -2.994252 -2.265733 0.531978 9.727965 0.000000 0.000000 0.000000 1.066201 -0.926436 7.834529 -0.626982 0.079591 0.131755 3.291043 4.914551 6.190024 0.000000 0.000000 0.000000 0.030368 -0.332669 7.744871 0.951755 -0.875177 6.827677 -1.512972 -1.235235 -6.123606 1.976344 -1.746066 1.936852 0.000000 0.000000 0.000000 -28.685951 4.193256 -6.528995 -42.607088 1.530549 -4.542264 -5.155103 -21.196032 1.593614 0.000000 0.000000 0.000000 26.405180 -4.176502 -5.133746 47.639767 -2.356587 -4.656054 2.307964 21.471215 1.037623 0.000000 0.000000 0.000000 
-0.001328 0.950222 -0.000877 -0.464754 4.503209 -5.013264 1.611614 0.682195 10.214396 1.429374 -0.040572 -2.293884 -1.994880 0.847355 9.465744 0.000000 0.000000 0.000000 1.176876 -0.883825 7.448860 -0.634802 0.097691 0.535620 3.542320 5.243282 6.574453 0.000000 0.000000 0.000000 0.038022 -0.352071 8.164517 0.962583 -0.883707 7.011560 -1.509207 -1.106859 -6.348579 2.071468 -1.936776 2.882728 0.000000 0.000000 0.000000 -28.855405 4.238537 -6.591740 -42.329295 0.952225 -4.297895 -5.808209 -21.456967 1.733452 0.000000 0.000000 0.000000 26.371880 -4.354361 -5.254445 47.732391 -2.242770 -4.598345 2.351042 22.043835 1.070814 0.000000 0.000000 0.000000 
-0.001521 0.950019 -0.000503 -0.624300 3.966274 -5.046232 1.595831 0.699774 10.270453 1.672284 -0.068410 -2.175125 -1.690090 1.273048 9.356211 0.000000 0.000000 0.000000 1.286157 -0.846296 7.119253 0.648054 -0.059923 0.476926 2.381960 2.145610 7.504593 0.000000 0.000000 0.000000 0.115503 -0.365509 8.384473 0.905798 -0.857824 7.375239 -1.531360 -0.773144 -6.486754 2.040919 -1.971730 3.321280 0.000000 0.000000 0.000000 -28.439327 4.033329 -6.422240 -42.743496 0.450400 -4.156758 -5.791477 -21.095346 1.694509 0.000000 0.000000 0.000000 26.616351 -4.486137 -5.346855 47.699214 -1.945323 -4.478608 2.310810 22.495938 1.089553 0.000000 0.000000 0.000000 
-0.001565 0.949454 0.000233 -0.742689 3.645031 -5.034564 1.779144 0.685044 10.207517 1.516367 -0.067529 -1.923862 -1.480151 1.498236 9.108252 0.000000 0.000000 0.000000 1.579439 -0.809782 6.681496 1.172839 -0.123104 0.465307 1.445921 -0.372424 8.574799 0.000000 0.000000 0.000000 0.173974 -0.385886 8.749407 0.977769 -0.890308 7.403789 -1.774453 -0.319264 -6.626358 2.202692 -2.226016 4.119149 0.000000 0.000000 0.000000 -28.202385 3.888610 -6.429814 -42.866987 0.238569 -4.045347 -5.751633 -20.866738 1.649748 0.000000 0.000000 0.000000 26.590663 -4.516495 -5.237880 48.085929 -1.825707 -4.494443 2.057477 23.125784 1.092670 0.000000 0.000000 0.000000 
-0.001420 0.949177 0.001446 -0.816875 3.355541 -5.069178 1.710143 0.683243 9.980084 1.700007 -0.118064 -1.245878 -1.249383 1.770594 8.868911 0.000000 0.000000 0.000000 1.705656 -0.786138 6.441780 1.046620 -0.089942 1.067728 1.497975 -0.198717 8.345521 0.000000 0.000000 0.000000 0.331647 -0.414931 9.151005 0.991133 -0.890186 7.426631 -1.831073 -0.179377 -6.777734 2.164942 -2.277998 4.720280 0.000000 0.000000 0.000000 -27.860203 3.837183 -6.347444 -43.349485 0.308856 -4.109529 -5.359918 -20.752774 1.565721 0.000000 0.000000 0.000000 26.813097 -4.388037 -5.187979 48.071807 -1.611516 -4.402472 2.040180 23.110454 1.087663 0.000000 0.000000 0.000000 
-0.001275 0.948833 0.003506 -0.880807 3.510440 -4.997833 1.907936 0.659965 9.970241 1.512359 -0.103370 -1.167345 -1.299805 1.632086 8.715649 0.000000 0.000000 0.000000 1.892614 -0.767069 6.183246 0.877804 -0.052113 1.642074 1.349871 -0.392173 8.096738 0.000000 0.000000 0.000000 0.224012 -0.423514 9.461984 1.059600 -0.935122 7.427961 -1.491721 -0.156093 -6.587378 1.826377 -2.084551 5.370917 0.000000 0.000000 0.000000 -27.886056 4.057000 -6.468372 -43.308702 0.424548 -4.166766 -5.439797 -20.865059 1.591968 0.000000 0.000000 0.000000 26.979046 -4.224077 -5.112932 47.769139 -1.722166 -4.433270 2.217515 23.641591 1.149143 0.000000 0.000000 0.000000 
-0.001290 0.948335 0.006847 -0.771493 3.633381 -4.992613 1.692826 0.677485 9.962969 1.737931 -0.143377 -0.794116 -1.285017 1.582953 8.517779 0.000000 0.000000 0.000000 2.047708 -0.748187 5.954560 0.453745 0.030008 2.464761 1.158547 -0.604846 7.645967 0.000000 0.000000 0.000000 0.072697 -0.419601 9.599301 1.333768 -1.121577 7.807361 -1.644041 -0.142941 -6.629235 1.541560 -1.932760 5.982667 0.000000 0.000000 0.000000 -27.527571 4.047835 -6.424252 -43.609864 0.401582 -4.183183 -5.301178 -20.929352 1.566006 0.000000 0.000000 0.000000 26.985955 -3.985052 -4.934400 47.889185 -1.537384 -4.380878 2.100014 23.873543 1.142919 0.000000 0.000000 0.000000 
-0.001634 0.947866 0.011897 -0.758277 3.817594 -4.999366 1.543127 0.694627 10.071642 2.107324 -0.198674 -0.437239 -1.288974 1.507325 8.321052 0.000000 0.000000 0.000000 2.180041 -0.774782 6.093881 0.299908 0.063512 2.843295 1.012171 -0.780925 7.345980 0.000000 0.000000 0.000000 -0.142871 -0.413501 9.782101 1.462546 -1.219557 8.056407 -1.474344 0.179972 -6.490366 1.309184 -1.756504 5.948901 0.000000 0.000000 0.000000 -27.257122 4.569834 -6.782470 -43.649427 0.672693 -4.271683 -5.733212 -21.395355 1.666722 0.000000 0.000000 0.000000 27.045390 -4.208303 -4.963198 47.663672 -1.518072 -4.398071 2.888154 24.113831 1.327014 0.000000 0.000000 0.000000 
-0.002332 0.947665 0.018554 -0.708886 4.104330 -4.899410 1.518523 0.718034 10.496133 2.283467 -0.201597 -0.691868 -1.431371 1.302891 8.370566 0.000000 0.000000 0.000000 2.347680 -0.763600 5.915194 0.109034 0.121805 3.772221 0.795596 -1.106141 7.050227 0.000000 0.000000 0.000000 -0.371030 -0.405780 9.942711 1.698678 -1.332231 7.583566 -1.535865 0.141764 -5.868277 1.241100 -1.751755 6.281310 0.000000 0.000000 0.000000 -26.787546 5.002355 -6.954689 -43.794089 1.077502 -4.476384 -6.200187 -21.988079 1.800729 0.000000 0.000000 0.000000 26.856463 -4.067241 -4.783082 48.129425 -2.135111 -4.749834 2.983486 24.781104 1.402514 0.000000 0.000000 0.000000 
